<svg width="15" height="21" viewBox="0 0 15 21" fill="none" xmlns="http://www.w3.org/2000/svg">
<path fill-rule="evenodd" clip-rule="evenodd" d="M4.98132 0.791534H10.3045C12.6425 0.791534 14.532 1.82271 14.5578 4.44403V19.0733C14.5578 19.2371 14.5233 19.4009 14.4543 19.5455C14.3422 19.7768 14.1523 19.9502 13.9194 20.0273C13.6951 20.1044 13.4449 20.0659 13.2378 19.931L7.64721 16.8085L2.04797 19.931C1.91942 20.0071 1.77189 20.0563 1.62522 20.0563C1.14208 20.0563 0.753845 19.6129 0.753845 19.0733V4.44403C0.753845 1.82271 2.65189 0.791534 4.98132 0.791534ZM4.39471 8.1349H10.8912C11.2622 8.1349 11.5642 7.79664 11.5642 7.37357C11.5642 6.94953 11.2622 6.61223 10.8912 6.61223H4.39471C4.02372 6.61223 3.72176 6.94953 3.72176 7.37357C3.72176 7.79664 4.02372 8.1349 4.39471 8.1349Z" fill="#D9D9D9"/>
</svg>
