<svg width="11" height="14" viewBox="0 0 11 14" fill="none" xmlns="http://www.w3.org/2000/svg">
<path d="M5.32169 14C4.51055 13.8394 3.75389 13.5677 3.08198 13.0613C0.781737 11.363 0.321689 8.23801 2.02266 5.84181C2.39191 5.32305 2.78537 4.82281 3.16067 4.31022C3.74784 3.50737 4.12314 2.61806 4.29869 1.62993C4.4137 0.987653 4.86769 0.808555 5.36406 1.21616C6.48997 2.14252 7.02871 3.36533 7.0953 4.82281C7.13767 5.7677 6.96818 6.67554 6.71394 7.5772C6.68973 7.66366 6.66551 7.74395 6.66551 7.83658C7.04082 7.52162 7.28295 7.12019 7.46455 6.67554C7.65825 6.18765 7.77932 5.68742 7.78537 5.1563C7.78537 5.07601 7.78537 4.99573 7.80353 4.91544C7.88827 4.43373 8.36043 4.21141 8.73573 4.52019C10.2854 5.78005 11.1752 7.39193 10.9573 9.45464C10.7333 11.5112 9.60135 12.9316 7.71878 13.7097C7.3798 13.8518 7.0166 13.9012 6.67157 14H5.31564H5.32169ZM5.243 2.7848C5.20062 2.86509 5.17641 2.90214 5.15825 2.94537C4.87375 3.80998 4.41975 4.57578 3.88101 5.30452C3.4815 5.84181 3.05171 6.34822 2.71273 6.92875C1.9137 8.28742 1.98028 9.96105 2.89433 11.2333C3.81442 12.5116 5.38222 13.1045 6.88343 12.7401C9.58924 12.0855 10.7091 8.9297 9.07472 6.5582C9.01418 6.47174 8.97181 6.32352 8.86285 6.3297C8.73573 6.34205 8.75995 6.50262 8.72968 6.60143C8.42096 7.63278 7.88222 8.49122 7.0045 9.11497C6.32048 9.60286 5.44881 9.17055 5.37011 8.32447C5.3459 8.05274 5.42459 7.81188 5.50329 7.56485C5.83016 6.5582 6.04203 5.53302 5.89675 4.46461C5.81806 3.85939 5.63041 3.30357 5.243 2.79098V2.7848Z" fill="#676767"/>
</svg>
