<svg width="27" height="28" viewBox="0 0 27 28" fill="none" xmlns="http://www.w3.org/2000/svg">
<path d="M11.4637 1.83736C11.6931 1.57359 11.9725 1.36287 12.2842 1.21867C12.5958 1.07448 12.9328 1 13.2736 1C13.6143 1 13.9513 1.07448 14.263 1.21867C14.5746 1.36287 14.8541 1.57359 15.0835 1.83736L16.3317 3.27207C16.574 3.55057 16.8721 3.7697 17.2046 3.91385C17.5371 4.05799 17.8959 4.12359 18.2554 4.10599L20.1069 4.01632C20.4471 3.99954 20.7869 4.05728 21.1046 4.18586C21.4223 4.31443 21.7109 4.511 21.9518 4.763C22.1928 5.015 22.3809 5.31687 22.504 5.6493C22.6271 5.98174 22.6826 6.33742 22.6669 6.69359L22.58 8.633C22.5632 9.00932 22.6259 9.38489 22.7636 9.73296C22.9013 10.081 23.1106 10.393 23.3767 10.6467L24.7472 11.9533C24.9992 12.1934 25.2005 12.4859 25.3383 12.8122C25.476 13.1384 25.5472 13.4912 25.5472 13.8479C25.5472 14.2045 25.476 14.5573 25.3383 14.8836C25.2005 15.2098 24.9992 15.5023 24.7472 15.7424L23.3767 17.049C23.1106 17.3027 22.9013 17.6147 22.7636 17.9628C22.6259 18.3109 22.5632 18.6864 22.58 19.0628L22.6657 21.0009C22.6817 21.357 22.6265 21.7128 22.5037 22.0453C22.3809 22.3779 22.1931 22.68 21.9524 22.9322C21.7116 23.1844 21.4233 23.3813 21.1057 23.5102C20.7881 23.6391 20.4483 23.6972 20.1081 23.6807L18.2554 23.5898C17.8959 23.5722 17.5371 23.6378 17.2046 23.7819C16.8721 23.9261 16.574 24.1452 16.3317 24.4237L15.0835 25.8584C14.8541 26.1222 14.5746 26.3329 14.263 26.4771C13.9513 26.6213 13.6143 26.6958 13.2736 26.6958C12.9328 26.6958 12.5958 26.6213 12.2842 26.4771C11.9725 26.3329 11.6931 26.1222 11.4637 25.8584L10.2155 24.4237C9.97315 24.1452 9.6751 23.9261 9.34259 23.7819C9.01009 23.6378 8.6513 23.5722 8.2918 23.5898L6.4403 23.6794C6.10006 23.6962 5.76023 23.6385 5.44254 23.5099C5.12485 23.3813 4.8363 23.1848 4.59534 22.9328C4.35438 22.6808 4.16631 22.3789 4.04317 22.0465C3.92004 21.714 3.86456 21.3583 3.88026 21.0022L3.96715 19.0628C3.98396 18.6864 3.9213 18.3109 3.7836 17.9628C3.6459 17.6147 3.43657 17.3027 3.17051 17.049L1.79993 15.7424C1.54795 15.5023 1.34665 15.2098 1.2089 14.8836C1.07116 14.5573 1 14.2045 1 13.8479C1 13.4912 1.07116 13.1384 1.2089 12.8122C1.34665 12.4859 1.54795 12.1934 1.79993 11.9533L3.17051 10.6467C3.43657 10.393 3.6459 10.081 3.7836 9.73296C3.9213 9.38489 3.98396 9.00932 3.96715 8.633L3.88149 6.69487C3.86546 6.33871 3.92062 5.98298 4.04344 5.65042C4.16627 5.31786 4.35406 5.0158 4.59479 4.76357C4.83552 4.51133 5.1239 4.31447 5.44147 4.18558C5.75905 4.05668 6.09883 3.9986 6.43907 4.01504L8.2918 4.10599C8.6513 4.12359 9.01009 4.05799 9.34259 3.91385C9.6751 3.7697 9.97315 3.55057 10.2155 3.27207L11.4637 1.83736Z" fill="white" stroke="#EC5F5F"/>
<path d="M18.5295 11.6943C18.5313 12.5391 18.2204 13.3517 17.662 13.9616C16.3818 15.3511 15.1399 16.7999 13.8125 18.1384C13.5078 18.4403 13.0248 18.4294 12.7337 18.1137L8.90784 13.9622C7.75142 12.7072 7.75142 10.6814 8.90784 9.42693C9.18116 9.12663 9.50988 8.88756 9.87409 8.72421C10.2383 8.56085 10.6304 8.47662 11.0266 8.47662C11.4229 8.47662 11.815 8.56085 12.1792 8.72421C12.5434 8.88756 12.8721 9.12663 13.1454 9.42693L13.2849 9.57736L13.4239 9.42693C13.6978 9.12734 14.0266 8.88871 14.3907 8.72532C14.7548 8.56193 15.1466 8.47716 15.5427 8.47607C16.3399 8.47607 17.1019 8.81865 17.6615 9.42693C18.22 10.0368 18.5311 10.8494 18.5295 11.6943Z" stroke="#EC5F5F" stroke-width="0.75" stroke-linejoin="round"/>
</svg>
