<svg width="24" height="22" viewBox="0 0 24 22" fill="none" xmlns="http://www.w3.org/2000/svg">
<path d="M2.42978 8.7061V18.2986C2.42978 18.8639 2.66081 19.4061 3.07204 19.8059C3.48327 20.2056 4.04102 20.4302 4.62259 20.4302H19.9723C20.5539 20.4302 21.1116 20.2056 21.5229 19.8059C21.9341 19.4061 22.1651 18.8639 22.1651 18.2986V8.7061M15.4036 20.4302V14.0353C15.4036 13.4699 15.1725 12.9277 14.7613 12.5279C14.3501 12.1282 13.7923 11.9036 13.2108 11.9036H11.0179C10.4364 11.9036 9.87862 12.1282 9.46738 12.5279C9.05615 12.9277 8.82512 13.4699 8.82512 14.0353V20.4302M16.1349 1.24529H20.572C20.715 1.24525 20.8541 1.29049 20.9682 1.37414C21.0823 1.4578 21.1654 1.57532 21.2047 1.70892L23.062 8.02823C23.0886 8.11276 23.0959 8.2019 23.0834 8.28945C23.0709 8.37701 23.0389 8.46085 22.9896 8.53514C22.9403 8.60942 22.8749 8.67236 22.7981 8.71956C22.7212 8.76676 22.6346 8.79709 22.5445 8.80842C21.6169 8.91926 19.9898 9.0397 18.8759 8.7061C18.2235 8.51105 17.3881 8.05274 16.9605 7.80441C16.8741 7.75381 16.8013 7.6839 16.7483 7.60048C16.6953 7.51706 16.6635 7.42254 16.6557 7.32478L16.1349 1.24529ZM16.1349 1.24529L16.6502 7.2555C16.661 7.37126 16.6379 7.48762 16.5836 7.59116C16.5293 7.69471 16.4459 7.7812 16.3432 7.84064C15.9024 8.09431 15.113 8.51958 14.4903 8.7061C12.8533 9.19638 11.7416 9.19638 10.1046 8.7061C9.48187 8.51958 8.69246 8.09431 8.2517 7.84171C8.14878 7.78218 8.06532 7.69552 8.01098 7.59177C7.95665 7.48802 7.93367 7.37143 7.94471 7.2555L8.46002 1.24529M16.1349 1.24529L8.46002 1.24529M8.46002 1.24529L7.93923 7.32478C7.93152 7.42272 7.89984 7.51746 7.84682 7.60107C7.7938 7.68469 7.72097 7.75477 7.63443 7.80547C7.20792 8.05274 6.37136 8.51105 5.719 8.7061C4.60505 9.03864 2.97689 8.91927 2.05042 8.80735C1.9605 8.79596 1.8742 8.76568 1.79752 8.71861C1.72084 8.67154 1.65562 8.60882 1.60638 8.53479C1.55714 8.46076 1.52506 8.3772 1.51238 8.28991C1.49969 8.20262 1.5067 8.11369 1.53292 8.0293L3.39023 1.70892C3.42954 1.57532 3.51255 1.4578 3.6267 1.37414C3.74084 1.29049 3.87991 1.24525 4.02286 1.24529L8.46002 1.24529Z" stroke="#808080" stroke-width="1.5"/>
</svg>
