<svg width="10" height="11" viewBox="0 0 10 11" fill="none" xmlns="http://www.w3.org/2000/svg">
<path d="M6.29015 4.96761C6.29015 5.69803 5.69803 6.29015 4.96761 6.29015C4.2372 6.29015 3.64508 5.69803 3.64508 4.96761C3.64508 4.2372 4.2372 3.64508 4.96761 3.64508C5.69803 3.64508 6.29015 4.2372 6.29015 4.96761Z" fill="white"/>
<path d="M8.93523 4.96761C8.93523 7.15887 6.29015 10.2578 4.96761 10.2578C3.64508 10.2578 1 7.15887 1 4.96761C1 2.77636 2.77636 1 4.96761 1C7.15887 1 8.93523 2.77636 8.93523 4.96761Z" fill="white"/>
<path d="M6.29015 4.96761C6.29015 5.69803 5.69803 6.29015 4.96761 6.29015C4.2372 6.29015 3.64508 5.69803 3.64508 4.96761C3.64508 4.2372 4.2372 3.64508 4.96761 3.64508C5.69803 3.64508 6.29015 4.2372 6.29015 4.96761Z" stroke="#7C747E"/>
<path d="M8.93523 4.96761C8.93523 7.15887 6.29015 10.2578 4.96761 10.2578C3.64508 10.2578 1 7.15887 1 4.96761C1 2.77636 2.77636 1 4.96761 1C7.15887 1 8.93523 2.77636 8.93523 4.96761Z" stroke="#7C747E"/>
</svg>
