<svg width="13" height="13" viewBox="0 0 13 13" fill="none" xmlns="http://www.w3.org/2000/svg">
<path d="M11.0338 9.21288L10.7493 9.45719V9.45719L11.0338 9.21288ZM11.7057 9.99533L11.9902 9.75102V9.75102L11.7057 9.99533ZM1.29433 9.99533L1.00983 9.75102L1.29433 9.99533ZM1.96625 9.21288L2.25074 9.45719L1.96625 9.21288ZM7.38458 4.66667C7.38458 5.12404 6.99927 5.51389 6.50009 5.51389V6.26389C7.3921 6.26389 8.13458 5.55932 8.13458 4.66667H7.38458ZM6.50009 5.51389C6.00091 5.51389 5.61561 5.12404 5.61561 4.66667H4.86561C4.86561 5.55932 5.60809 6.26389 6.50009 6.26389V5.51389ZM5.61561 4.66667C5.61561 4.20929 6.00091 3.81944 6.50009 3.81944V3.06944C5.60809 3.06944 4.86561 3.77401 4.86561 4.66667H5.61561ZM6.50009 3.81944C6.99927 3.81944 7.38458 4.20929 7.38458 4.66667H8.13458C8.13458 3.77401 7.3921 3.06944 6.50009 3.06944V3.81944ZM9.90354 4.66667C9.90354 5.55064 9.33817 6.68906 8.57055 7.63407C8.1931 8.09874 7.78322 8.49577 7.40146 8.77301C7.00563 9.06048 6.69298 9.18056 6.50009 9.18056V9.93056C6.93695 9.93056 7.41147 9.69265 7.84218 9.37986C8.28696 9.05685 8.74297 8.61135 9.1527 8.10694C9.95943 7.11377 10.6535 5.80773 10.6535 4.66667H9.90354ZM6.50009 9.18056C6.3072 9.18056 5.99456 9.06048 5.59872 8.77301C5.21697 8.49577 4.80708 8.09874 4.42963 7.63407C3.66202 6.68906 3.09664 5.55064 3.09664 4.66667H2.34664C2.34664 5.80773 3.04075 7.11377 3.84749 8.10694C4.25722 8.61135 4.71323 9.05685 5.15801 9.37986C5.58871 9.69265 6.06324 9.93056 6.50009 9.93056V9.18056ZM3.09664 4.66667C3.09664 2.85927 4.60972 1.375 6.50009 1.375V0.625C4.2169 0.625 2.34664 2.42398 2.34664 4.66667H3.09664ZM6.50009 1.375C8.39046 1.375 9.90354 2.85927 9.90354 4.66667H10.6535C10.6535 2.42398 8.78328 0.625 6.50009 0.625V1.375ZM10.7493 9.45719L11.4212 10.2396L11.9902 9.75102L11.3182 8.96857L10.7493 9.45719ZM10.7381 11.625H2.26189V12.375H10.7381V11.625ZM1.57883 10.2396L2.25074 9.45719L1.68175 8.96857L1.00983 9.75102L1.57883 10.2396ZM9.09863 7.95833H8.38922V8.70833H9.09863V7.95833ZM3.90137 8.70833H4.61077V7.95833H3.90137V8.70833ZM2.26189 11.625C1.49168 11.625 1.11884 10.7753 1.57883 10.2396L1.00983 9.75102C0.102588 10.8075 0.896424 12.375 2.26189 12.375V11.625ZM11.4212 10.2396C11.8812 10.7753 11.5083 11.625 10.7381 11.625V12.375C12.1036 12.375 12.8974 10.8075 11.9902 9.75102L11.4212 10.2396ZM11.3182 8.96857C10.767 8.32663 9.95334 7.95833 9.09863 7.95833V8.70833C9.73908 8.70833 10.3433 8.98451 10.7493 9.45719L11.3182 8.96857ZM2.25074 9.45719C2.65666 8.98451 3.26092 8.70833 3.90137 8.70833V7.95833C3.04666 7.95833 2.23301 8.32663 1.68175 8.96857L2.25074 9.45719Z" fill="#7C747E"/>
</svg>
