<svg width="10" height="10" viewBox="0 0 10 10" fill="none" xmlns="http://www.w3.org/2000/svg">
<path d="M8.11111 1C8.60203 1 9 1.39252 9 1.87671L9 3.3733C9 3.85749 8.60203 4.25001 8.11111 4.25001H6.77778C6.28686 4.25001 5.88889 3.85749 5.88889 3.3733L5.88889 1.87671C5.88889 1.39252 6.28686 1 6.77778 1L8.11111 1Z" stroke="#7C747E" stroke-linecap="round" stroke-linejoin="round"/>
<path d="M1.88889 1C1.39797 1 1 1.39252 1 1.87671L1 3.3733C1 3.85749 1.39797 4.25001 1.88889 4.25001H3.22223C3.71315 4.25001 4.11111 3.85749 4.11111 3.3733L4.11111 1.87671C4.11111 1.39252 3.71314 1 3.22222 1L1.88889 1Z" stroke="#7C747E" stroke-linecap="round" stroke-linejoin="round"/>
<path d="M8.11111 5.75001C8.60203 5.75001 9 6.14252 9 6.62672V8.12329C9 8.60748 8.60203 9 8.11111 9H6.77778C6.28686 9 5.88889 8.60748 5.88889 8.12329L5.88889 6.62672C5.88889 6.14252 6.28686 5.75001 6.77778 5.75001H8.11111Z" stroke="#7C747E" stroke-linecap="round" stroke-linejoin="round"/>
<path d="M1.88889 5.75001C1.39797 5.75001 1 6.14252 1 6.62672L1 8.12329C1 8.60748 1.39797 9 1.88889 9H3.22223C3.71315 9 4.11112 8.60748 4.11111 8.12329L4.11111 6.62672C4.11111 6.14252 3.71314 5.75001 3.22223 5.75001H1.88889Z" stroke="#7C747E" stroke-linecap="round" stroke-linejoin="round"/>
</svg>
