<svg width="18" height="16" viewBox="0 0 18 16" fill="none" xmlns="http://www.w3.org/2000/svg">
<path d="M1.66891 8.91107C1.95795 8.55632 2.16816 8.28343 2.50975 8.03783C2.93017 7.73765 3.21921 7.41018 4.29654 7.00084C4.29654 7.00084 4.34909 6.97355 4.40165 6.94626C3.3506 6.18217 2.82507 5.14519 2.87762 3.8626C2.9039 2.93477 3.27177 2.14339 3.92867 1.51574C5.29504 0.17858 7.42342 0.260447 8.6584 1.65219C9.94594 3.09851 9.94594 5.58181 8.05405 6.97355C8.05405 7.05542 8.13288 7.05542 8.15915 7.05542C8.81606 7.27373 9.39414 7.62849 9.91966 8.06511C9.99849 8.14698 10.0773 8.14698 10.1824 8.06511C10.5503 7.73765 10.997 7.46476 11.4437 7.30102C11.4437 7.30102 11.4962 7.27373 11.5225 7.24644C11.1546 6.94626 10.8656 6.59151 10.6817 6.12759C10.2613 5.03603 10.3926 4.05362 11.1546 3.18038C11.8904 2.3617 12.8101 2.08881 13.8611 2.41628C14.9122 2.74375 15.5428 3.50784 15.7004 4.62669C15.8581 5.6091 15.5428 6.42777 14.8333 7.11C14.7107 7.21915 14.7282 7.31012 14.8859 7.38289C16.6201 8.14698 17.7237 9.86619 17.7237 11.8583C17.7237 12.1585 17.7237 12.1585 17.4347 12.1585C15.7793 12.1585 14.0976 12.1585 12.4422 12.1585C12.1531 12.1585 12.1794 12.1585 12.1794 12.4587C12.1794 12.8953 12.232 13.3046 12.1531 13.7412C11.9429 14.8874 10.9707 15.7879 9.81456 15.7879C7.42342 15.7879 5.03228 15.7879 2.64114 15.7879C1.9054 15.7879 0.512757 14.6691 0.27627 13.2773C0.223718 13.0044 0.27627 12.7861 0.302547 12.3222C0.355099 11.7764 0.591586 10.3301 1.66891 8.96565V8.91107ZM6.21471 14.9147C7.37087 14.9147 8.5533 14.9147 9.70945 14.9147C10.5503 14.9147 11.2335 14.3143 11.3649 13.4683C11.4437 13.0044 11.3911 12.5405 11.3649 12.0766C10.997 9.15668 8.21171 7.02813 5.42642 7.54662C3.19294 7.98325 1.80029 9.37499 1.19594 11.64C1.03828 12.2403 1.03828 12.868 1.09083 13.4683C1.16966 14.2597 1.9054 14.9147 2.77252 14.9147C3.92867 14.9147 5.08483 14.9147 6.24099 14.9147H6.21471ZM3.66591 3.99905C3.66591 5.47266 4.79579 6.67337 6.18843 6.67337C7.60735 6.67337 8.78978 5.47266 8.78978 4.02634C8.78978 2.58002 7.63363 1.35201 6.21471 1.35201C4.79579 1.35201 3.63963 2.52544 3.63963 3.99905H3.66591ZM14.4655 11.2852C15.2012 11.2852 15.9107 11.2852 16.6464 11.2852C16.9617 11.2852 16.9617 11.2852 16.8829 10.985C16.2785 8.01054 13.0465 6.83711 10.8131 8.55632C10.6554 8.69276 10.6554 8.77463 10.7868 8.91107C11.3123 9.53872 11.6802 10.2755 11.9167 11.0669C11.9692 11.2579 12.048 11.3125 12.232 11.3125C12.9677 11.3125 13.7297 11.3125 14.4655 11.3125V11.2852ZM13.0991 6.91897C14.1239 6.91897 14.9647 6.04573 14.9647 4.98145C14.9647 3.91718 14.1501 3.07122 13.1254 3.07122C12.0743 3.07122 11.2598 3.91718 11.2598 5.00874C11.2598 6.07301 12.0743 6.94626 13.1254 6.94626L13.0991 6.91897Z" fill="#767676"/>
</svg>
