<svg width="18" height="18" viewBox="0 0 18 18" fill="none" xmlns="http://www.w3.org/2000/svg">
<path d="M5.77184 12.1523L11.9382 6.27355M6.24622 6.72208L6.2341 6.71041M11.4795 11.7626L11.4674 11.7509M5.3632 2.99724L4.49143 3.04785C3.3597 3.11356 2.45726 3.97391 2.38833 5.05286L2.33524 5.88397C2.30479 6.36072 2.10783 6.81404 1.77575 7.17169L1.19686 7.79517C0.445346 8.60456 0.445346 9.82128 1.19686 10.6307L1.77575 11.2541C2.10783 11.6118 2.30479 12.0651 2.33524 12.5419L2.38833 13.373C2.45726 14.4519 3.3597 15.3123 4.49143 15.378L5.3632 15.4286C5.86328 15.4576 6.33878 15.6454 6.71392 15.962L7.3679 16.5139C8.21689 17.2303 9.49313 17.2303 10.3421 16.5139L10.9961 15.962C11.3712 15.6454 11.8467 15.4576 12.3468 15.4286L13.2186 15.378C14.3503 15.3123 15.2528 14.4519 15.3217 13.373L15.3748 12.5419C15.4052 12.0651 15.6022 11.6118 15.9343 11.2541L16.5132 10.6307C17.2647 9.82128 17.2647 8.60456 16.5132 7.79517L15.9343 7.17169C15.6022 6.81404 15.4052 6.36072 15.3748 5.88397L15.3217 5.05286C15.2528 3.97391 14.3503 3.11356 13.2186 3.04785L12.3468 2.99724C11.8467 2.9682 11.3712 2.78043 10.9961 2.46384L10.3421 1.91195C9.49313 1.19549 8.21689 1.19549 7.3679 1.91195L6.71392 2.46384C6.33878 2.78043 5.86328 2.9682 5.3632 2.99724Z" stroke="white" stroke-linecap="round"/>
</svg>
