<svg width="12" height="13" viewBox="0 0 12 13" fill="none" xmlns="http://www.w3.org/2000/svg">
<path d="M4.12265 3.82111L5.55173 0.79153C5.59023 0.704783 5.65308 0.631072 5.73264 0.579336C5.81221 0.527599 5.90508 0.500061 5.99998 0.500061C6.09489 0.500061 6.18776 0.527599 6.26732 0.579336C6.34689 0.631072 6.40973 0.704783 6.44823 0.79153L7.87732 3.82111L11.0719 4.3097C11.4817 4.37203 11.6448 4.90003 11.3487 5.20253L9.0369 7.55836L9.58232 10.8868C9.6529 11.3149 9.2239 11.6403 8.85723 11.4386L5.99998 9.86653L3.14273 11.4386C2.77607 11.6403 2.34707 11.3149 2.41765 10.8868L2.96307 7.55928L0.651232 5.20253C0.355149 4.90003 0.518315 4.37203 0.928065 4.3097L4.12265 3.82111Z" stroke="#676767" stroke-linecap="round" stroke-linejoin="round"/>
</svg>
