<svg width="16" height="12" viewBox="0 0 16 12" fill="none" xmlns="http://www.w3.org/2000/svg">
<path d="M9.79349 7.74333V4.01164M3.44537 0.540741H8.17162C8.19847 1.43479 8.98259 2.15185 9.94597 2.15185C10.9093 2.15185 11.6935 1.43479 11.7203 0.540741H12.8965C14.32 0.540741 15.474 1.61897 15.474 2.94904V8.92398C15.474 10.254 14.32 11.3323 12.8965 11.3323H11.7203C11.6935 10.4382 10.9093 9.72117 9.94597 9.72117C8.98259 9.72117 8.19847 10.4382 8.17162 11.3323H3.44538C2.02182 11.3323 0.867807 10.254 0.867807 8.92398L0.867798 2.94904C0.867798 1.61897 2.02182 0.540741 3.44537 0.540741Z" stroke="#808080" stroke-linecap="round" stroke-linejoin="round"/>
</svg>
