<svg width="14" height="17" viewBox="0 0 14 17" fill="none" xmlns="http://www.w3.org/2000/svg">
<path d="M0.660301 0.615967H13.3395M0.660301 16.3841H13.3395M11.7546 0.615967V3.01403C11.7546 3.56428 11.5521 4.09809 11.1911 4.53336L8.5408 7.67877C8.08294 8.22901 8.09175 9.00099 8.56722 9.53481L11.1471 12.4338C11.5433 12.8773 11.7546 13.4358 11.7546 14.0024V16.3677M2.24521 0.615967V3.01403C2.24521 3.56428 2.44772 4.09809 2.80873 4.53336L5.45904 7.67877C5.9169 8.22901 5.9081 9.00099 5.43263 9.53481L2.85275 12.4338C2.45653 12.8773 2.24521 13.4358 2.24521 14.0024V16.3677" stroke="#808080" stroke-linecap="round" stroke-linejoin="round"/>
</svg>
