<svg width="14" height="10" viewBox="0 0 14 10" fill="none" xmlns="http://www.w3.org/2000/svg">
<path d="M5.13793 7.54545C5.13793 8.34878 4.39688 9 3.48276 9C2.56863 9 1.82759 8.34878 1.82759 7.54545M5.13793 7.54545C5.13793 6.74213 4.39688 6.09091 3.48276 6.09091C2.56863 6.09091 1.82759 6.74213 1.82759 7.54545M5.13793 7.54545H8.86207M1.82759 7.54545H1V2C1 1.44772 1.44772 1 2 1H8.86207V7.54545M12.5862 7.54545C12.5862 8.34878 11.8452 9 10.931 9C10.0169 9 9.27586 8.34878 9.27586 7.54545M12.5862 7.54545C12.5862 6.74213 11.8452 6.09091 10.931 6.09091C10.0169 6.09091 9.27586 6.74213 9.27586 7.54545M12.5862 7.54545H13V4.63636L10.931 2.81818H8.86207V7.54545M9.27586 7.54545H8.86207" stroke="#7C747E" stroke-linecap="round" stroke-linejoin="round"/>
</svg>
