<svg width="27" height="27" viewBox="0 0 27 27" fill="none" xmlns="http://www.w3.org/2000/svg">
<path d="M11.875 1.36132C12.1043 1.09755 12.3838 0.886823 12.6954 0.74263C13.0071 0.598437 13.3441 0.523956 13.6848 0.523956C14.0256 0.523956 14.3626 0.598437 14.6742 0.74263C14.9859 0.886823 15.2654 1.09755 15.4947 1.36132L16.7429 2.79603C16.9853 3.07453 17.2833 3.29366 17.6158 3.43781C17.9484 3.58195 18.3071 3.64755 18.6666 3.62995L20.5181 3.54028C20.8584 3.5235 21.1982 3.58124 21.5159 3.70982C21.8336 3.83839 22.1221 4.03496 22.3631 4.28696C22.6041 4.53896 22.7921 4.84083 22.9153 5.17326C23.0384 5.5057 23.0939 5.86138 23.0782 6.21754L22.9913 8.15696C22.9745 8.53328 23.0371 8.90885 23.1748 9.25692C23.3125 9.60498 23.5219 9.91698 23.7879 10.1707L25.1585 11.4773C25.4105 11.7174 25.6118 12.0099 25.7495 12.3362C25.8873 12.6624 25.9584 13.0152 25.9584 13.3719C25.9584 13.7285 25.8873 14.0813 25.7495 14.4075C25.6118 14.7338 25.4105 15.0263 25.1585 15.2664L23.7879 16.573C23.5219 16.8267 23.3125 17.1387 23.1748 17.4868C23.0371 17.8349 22.9745 18.2104 22.9913 18.5868L23.0769 20.5249C23.093 20.881 23.0378 21.2368 22.915 21.5693C22.7922 21.9019 22.6044 22.204 22.3636 22.4562C22.1229 22.7084 21.8345 22.9053 21.517 23.0342C21.1994 23.1631 20.8596 23.2212 20.5194 23.2047L18.6666 23.1138C18.3071 23.0962 17.9484 23.1618 17.6158 23.3059C17.2833 23.4501 16.9853 23.6692 16.7429 23.9477L15.4947 25.3824C15.2654 25.6462 14.9859 25.8569 14.6742 26.0011C14.3626 26.1453 14.0256 26.2198 13.6848 26.2198C13.3441 26.2198 13.0071 26.1453 12.6954 26.0011C12.3838 25.8569 12.1043 25.6462 11.875 25.3824L10.6268 23.9477C10.3844 23.6692 10.0864 23.4501 9.75384 23.3059C9.42134 23.1618 9.06255 23.0962 8.70305 23.1138L6.85156 23.2034C6.51133 23.2202 6.17149 23.1625 5.8538 23.0339C5.53611 22.9053 5.24755 22.7088 5.00659 22.4568C4.76563 22.2048 4.57757 21.9029 4.45444 21.5705C4.33131 21.238 4.27582 20.8823 4.29152 20.5262L4.37841 18.5868C4.39522 18.2104 4.33255 17.8349 4.19485 17.4868C4.05715 17.1387 3.84782 16.8267 3.58176 16.573L2.21119 15.2664C1.95921 15.0263 1.7579 14.7338 1.62015 14.4075C1.48241 14.0813 1.41125 13.7285 1.41125 13.3719C1.41125 13.0152 1.48241 12.6624 1.62015 12.3362C1.7579 12.0099 1.95921 11.7174 2.21119 11.4773L3.58176 10.1707C3.84782 9.91698 4.05715 9.60498 4.19485 9.25692C4.33255 8.90885 4.39522 8.53328 4.37841 8.15696L4.29275 6.21883C4.27672 5.86267 4.33188 5.50694 4.4547 5.17438C4.57753 4.84182 4.76532 4.53976 5.00605 4.28753C5.24678 4.03529 5.53516 3.83843 5.85273 3.70954C6.17031 3.58064 6.51009 3.52256 6.85033 3.539L8.70305 3.62995C9.06255 3.64755 9.42134 3.58195 9.75384 3.43781C10.0864 3.29366 10.3844 3.07453 10.6268 2.79603L11.875 1.36132Z" fill="white"/>
<path d="M10.0135 13.3719L12.461 15.9338L17.3559 10.8099" fill="white"/>
<path d="M11.875 1.36132L12.2522 1.6895L12.2522 1.68942L11.875 1.36132ZM13.6848 0.523956V1.02396V0.523956ZM15.4947 1.36132L15.1174 1.68942L15.1175 1.6895L15.4947 1.36132ZM16.7429 2.79603L16.3657 3.12421L16.3657 3.12425L16.7429 2.79603ZM18.6666 3.62995L18.6424 3.13054L18.6422 3.13055L18.6666 3.62995ZM20.5181 3.54028L20.5423 4.0397L20.5428 4.03967L20.5181 3.54028ZM23.0782 6.21754L23.5777 6.23992L23.5777 6.23957L23.0782 6.21754ZM22.9913 8.15696L22.4918 8.13458L22.4918 8.13464L22.9913 8.15696ZM23.7879 10.1707L23.4429 10.5325L23.4429 10.5326L23.7879 10.1707ZM25.1585 11.4773L24.8135 11.8392L24.8136 11.8393L25.1585 11.4773ZM25.1585 15.2664L24.8136 14.9045L24.8135 14.9045L25.1585 15.2664ZM23.7879 16.573L23.4429 16.2112L23.4429 16.2112L23.7879 16.573ZM22.9913 18.5868L23.4908 18.5647L23.4908 18.5644L22.9913 18.5868ZM23.0769 20.5249L22.5774 20.547L22.5774 20.5474L23.0769 20.5249ZM20.5194 23.2047L20.4948 23.7041L20.4952 23.7041L20.5194 23.2047ZM18.6666 23.1138L18.6911 22.6144L18.6911 22.6144L18.6666 23.1138ZM16.7429 23.9477L16.3657 23.6195L16.3657 23.6195L16.7429 23.9477ZM15.4947 25.3824L15.1175 25.0542L15.1174 25.0543L15.4947 25.3824ZM11.875 25.3824L12.2522 25.0543L12.2522 25.0542L11.875 25.3824ZM10.6268 23.9477L11.004 23.6195L11.0039 23.6195L10.6268 23.9477ZM8.70305 23.1138L8.72724 23.6132L8.72751 23.6132L8.70305 23.1138ZM6.85156 23.2034L6.82737 22.704L6.82693 22.704L6.85156 23.2034ZM4.29152 20.5262L3.79202 20.5038L3.79201 20.5041L4.29152 20.5262ZM4.37841 18.5868L4.87791 18.6091L4.87791 18.6091L4.37841 18.5868ZM3.58176 16.573L3.92681 16.2112L3.92677 16.2111L3.58176 16.573ZM2.21119 15.2664L2.5562 14.9045L2.55611 14.9045L2.21119 15.2664ZM1.41125 13.3719H1.91125H1.41125ZM2.21119 11.4773L2.55611 11.8393L2.5562 11.8392L2.21119 11.4773ZM3.58176 10.1707L3.92677 10.5326L3.92681 10.5325L3.58176 10.1707ZM4.37841 8.15696L3.87889 8.17904L3.87891 8.17928L4.37841 8.15696ZM4.29275 6.21883L4.79226 6.19675L4.79224 6.19634L4.29275 6.21883ZM6.85033 3.539L6.87485 3.0396L6.87446 3.03958L6.85033 3.539ZM8.70305 3.62995L8.67854 4.12935L8.6786 4.12935L8.70305 3.62995ZM10.6268 2.79603L11.0039 3.12425L11.004 3.12421L10.6268 2.79603ZM10.3751 13.0265C10.1843 12.8268 9.86782 12.8196 9.66815 13.0103C9.46847 13.2011 9.46124 13.5176 9.65199 13.7173L10.3751 13.0265ZM12.461 15.9338L12.0994 16.2792C12.1938 16.378 12.3244 16.4338 12.461 16.4338C12.5976 16.4338 12.7282 16.378 12.8225 16.2792L12.461 15.9338ZM17.7174 11.1553C17.9082 10.9556 17.9009 10.6391 17.7013 10.4484C17.5016 10.2576 17.1851 10.2648 16.9943 10.4645L17.7174 11.1553ZM12.2522 1.68942C12.4362 1.4779 12.6589 1.31044 12.9054 1.19642L12.4855 0.288844C12.1086 0.463201 11.7725 0.717204 11.4977 1.03323L12.2522 1.68942ZM12.9054 1.19642C13.1518 1.08242 13.4172 1.02396 13.6848 1.02396V0.0239563C13.271 0.0239563 12.8624 0.114452 12.4855 0.288844L12.9054 1.19642ZM13.6848 1.02396C13.9525 1.02396 14.2179 1.08242 14.4643 1.19642L14.8842 0.288844C14.5073 0.114452 14.0987 0.0239563 13.6848 0.0239563V1.02396ZM14.4643 1.19642C14.7108 1.31045 14.9335 1.4779 15.1174 1.68942L15.872 1.03323C15.5972 0.717203 15.261 0.4632 14.8842 0.288844L14.4643 1.19642ZM15.1175 1.6895L16.3657 3.12421L17.1202 2.46784L15.872 1.03314L15.1175 1.6895ZM16.3657 3.12425C16.6561 3.45793 17.0147 3.72218 17.417 3.89656L17.8147 2.97906C17.5519 2.86515 17.3145 2.69114 17.1201 2.4678L16.3657 3.12425ZM17.417 3.89656C17.8193 4.07097 18.2545 4.15073 18.6911 4.12935L18.6422 3.13055C18.3598 3.14438 18.0774 3.09292 17.8147 2.97906L17.417 3.89656ZM18.6908 4.12936L20.5423 4.0397L20.4939 3.04087L18.6424 3.13054L18.6908 4.12936ZM20.5428 4.03967C20.81 4.02649 21.0775 4.07179 21.3283 4.1733L21.7035 3.24634C21.3189 3.0907 20.9067 3.02051 20.4935 3.04089L20.5428 4.03967ZM21.3283 4.1733C21.5792 4.27484 21.8088 4.43077 22.0017 4.63251L22.7245 3.94141C22.4355 3.63915 22.0879 3.40194 21.7035 3.24634L21.3283 4.1733ZM22.0017 4.63251C22.1947 4.83431 22.3466 5.07743 22.4464 5.34693L23.3841 4.9996C23.2377 4.60423 23.0134 4.2436 22.7245 3.94141L22.0017 4.63251ZM22.4464 5.34693C22.5462 5.61647 22.5914 5.90558 22.5786 6.19552L23.5777 6.23957C23.5963 5.81717 23.5305 5.39493 23.3841 4.9996L22.4464 5.34693ZM22.5787 6.19517L22.4918 8.13458L23.4908 8.17934L23.5777 6.23992L22.5787 6.19517ZM22.4918 8.13464C22.4718 8.58092 22.5461 9.02681 22.7099 9.44085L23.6398 9.07298C23.5282 8.79089 23.4771 8.48564 23.4908 8.17928L22.4918 8.13464ZM22.7099 9.44085C22.8737 9.85494 23.1235 10.228 23.4429 10.5325L24.133 9.80881C23.9203 9.60598 23.7514 9.35503 23.6398 9.07298L22.7099 9.44085ZM23.4429 10.5326L24.8135 11.8392L25.5035 11.1154L24.1329 9.80878L23.4429 10.5326ZM24.8136 11.8393C25.015 12.0312 25.1774 12.2665 25.2889 12.5307L26.2102 12.1417C26.0462 11.7534 25.8059 11.4036 25.5034 11.1153L24.8136 11.8393ZM25.2889 12.5307C25.4005 12.7949 25.4584 13.0815 25.4584 13.3719H26.4584C26.4584 12.9489 26.3741 12.5299 26.2102 12.1417L25.2889 12.5307ZM25.4584 13.3719C25.4584 13.6622 25.4005 13.9488 25.2889 14.2131L26.2102 14.602C26.3741 14.2138 26.4584 13.7949 26.4584 13.3719H25.4584ZM25.2889 14.2131C25.1774 14.4773 25.015 14.7125 24.8136 14.9045L25.5034 15.6284C25.8059 15.3402 26.0462 14.9903 26.2102 14.602L25.2889 14.2131ZM24.8135 14.9045L23.4429 16.2112L24.1329 16.9349L25.5035 15.6283L24.8135 14.9045ZM23.4429 16.2112C23.1235 16.5157 22.8737 16.8888 22.7099 17.3029L23.6398 17.6707C23.7514 17.3887 23.9203 17.1377 24.133 16.9349L23.4429 16.2112ZM22.7099 17.3029C22.5461 17.7169 22.4718 18.1628 22.4918 18.6091L23.4908 18.5644C23.4771 18.2581 23.5282 17.9528 23.6398 17.6707L22.7099 17.3029ZM22.4918 18.6088L22.5774 20.547L23.5765 20.5028L23.4908 18.5647L22.4918 18.6088ZM22.5774 20.5474C22.5905 20.8373 22.5455 21.1265 22.4459 21.3961L23.384 21.7426C23.5301 21.3471 23.5954 20.9248 23.5764 20.5024L22.5774 20.5474ZM22.4459 21.3961C22.3464 21.6657 22.1947 21.909 22.0019 22.111L22.7253 22.8014C23.014 22.4989 23.2379 22.1381 23.384 21.7426L22.4459 21.3961ZM22.0019 22.111C21.8092 22.3129 21.5797 22.4691 21.3289 22.5709L21.705 23.4975C22.0893 23.3415 22.4366 23.1039 22.7253 22.8014L22.0019 22.111ZM21.3289 22.5709C21.0782 22.6727 20.8108 22.7182 20.5435 22.7053L20.4952 23.7041C20.9084 23.7241 21.3206 23.6535 21.705 23.4975L21.3289 22.5709ZM20.5439 22.7053L18.6911 22.6144L18.6421 23.6132L20.4948 23.7041L20.5439 22.7053ZM18.6911 22.6144C18.2545 22.593 17.8193 22.6727 17.417 22.8472L17.8147 23.7647C18.0774 23.6508 18.3598 23.5993 18.6422 23.6132L18.6911 22.6144ZM17.417 22.8472C17.0147 23.0215 16.6561 23.2858 16.3657 23.6195L17.1201 24.2759C17.3145 24.0526 17.5519 23.8786 17.8147 23.7647L17.417 22.8472ZM16.3657 23.6195L15.1175 25.0542L15.872 25.7106L17.1202 24.2759L16.3657 23.6195ZM15.1174 25.0543C14.9335 25.2658 14.7107 25.4333 14.4643 25.5473L14.8842 26.4549C15.261 26.2805 15.5972 26.0265 15.872 25.7105L15.1174 25.0543ZM14.4643 25.5473C14.2179 25.6613 13.9525 25.7198 13.6848 25.7198V26.7198C14.0987 26.7198 14.5072 26.6293 14.8842 26.4549L14.4643 25.5473ZM13.6848 25.7198C13.4172 25.7198 13.1518 25.6613 12.9054 25.5473L12.4855 26.4549C12.8624 26.6293 13.271 26.7198 13.6848 26.7198V25.7198ZM12.9054 25.5473C12.6589 25.4333 12.4362 25.2658 12.2522 25.0543L11.4977 25.7105C11.7725 26.0265 12.1086 26.2805 12.4855 26.4549L12.9054 25.5473ZM12.2522 25.0542L11.004 23.6195L10.2495 24.2759L11.4977 25.7106L12.2522 25.0542ZM11.0039 23.6195C10.7136 23.2858 10.355 23.0215 9.95271 22.8472L9.55497 23.7647C9.81774 23.8786 10.0552 24.0526 10.2496 24.2759L11.0039 23.6195ZM9.95271 22.8472C9.55037 22.6727 9.11522 22.593 8.6786 22.6144L8.72751 23.6132C9.00989 23.5993 9.2923 23.6508 9.55497 23.7647L9.95271 22.8472ZM8.67887 22.6144L6.82737 22.704L6.87574 23.7029L8.72724 23.6132L8.67887 22.6144ZM6.82693 22.704C6.55965 22.7172 6.2922 22.6719 6.04138 22.5704L5.66622 23.4974C6.05078 23.653 6.463 23.7232 6.87619 23.7028L6.82693 22.704ZM6.04138 22.5704C5.79048 22.4689 5.56087 22.3129 5.36797 22.1112L4.64521 22.8023C4.93423 23.1046 5.28174 23.3418 5.66622 23.4974L6.04138 22.5704ZM5.36797 22.1112C5.175 21.9094 5.02313 21.6663 4.92331 21.3968L3.98556 21.7441C4.132 22.1395 4.35625 22.5001 4.64521 22.8023L5.36797 22.1112ZM4.92331 21.3968C4.82347 21.1273 4.77825 20.8381 4.79104 20.5482L3.79201 20.5041C3.77338 20.9265 3.83914 21.3488 3.98556 21.7441L4.92331 21.3968ZM4.79102 20.5485L4.87791 18.6091L3.87891 18.5644L3.79202 20.5038L4.79102 20.5485ZM4.87791 18.6091C4.89785 18.1628 4.82359 17.7169 4.65979 17.3029L3.72991 17.6707C3.84151 17.9528 3.8926 18.2581 3.87891 18.5644L4.87791 18.6091ZM4.65979 17.3029C4.49597 16.8888 4.24621 16.5157 3.92681 16.2112L3.23672 16.9349C3.44943 17.1377 3.61833 17.3887 3.72991 17.6707L4.65979 17.3029ZM3.92677 16.2111L2.5562 14.9045L1.86618 15.6283L3.23675 16.9349L3.92677 16.2111ZM2.55611 14.9045C2.35466 14.7125 2.19233 14.4773 2.08078 14.2131L1.15953 14.602C1.32347 14.9903 1.56376 15.3402 1.86627 15.6284L2.55611 14.9045ZM2.08078 14.2131C1.96921 13.9488 1.91125 13.6622 1.91125 13.3719H0.911255C0.911255 13.7949 0.995603 14.2138 1.15953 14.602L2.08078 14.2131ZM1.91125 13.3719C1.91125 13.0815 1.96921 12.7949 2.08078 12.5307L1.15953 12.1417C0.995603 12.5299 0.911255 12.9489 0.911255 13.3719H1.91125ZM2.08078 12.5307C2.19233 12.2665 2.35466 12.0312 2.55611 11.8393L1.86627 11.1153C1.56376 11.4036 1.32347 11.7534 1.15953 12.1417L2.08078 12.5307ZM2.5562 11.8392L3.92677 10.5326L3.23675 9.80877L1.86618 11.1154L2.5562 11.8392ZM3.92681 10.5325C4.24621 10.228 4.49597 9.85494 4.65979 9.44085L3.72991 9.07298C3.61833 9.35503 3.44943 9.60598 3.23672 9.80881L3.92681 10.5325ZM4.65979 9.44085C4.82359 9.02681 4.89785 8.58091 4.87791 8.13464L3.87891 8.17928C3.8926 8.48564 3.84151 8.79089 3.72991 9.07298L4.65979 9.44085ZM4.87792 8.13488L4.79226 6.19675L3.79323 6.2409L3.87889 8.17904L4.87792 8.13488ZM4.79224 6.19634C4.77919 5.90642 4.82415 5.61726 4.92374 5.34761L3.98567 5.00115C3.83961 5.39662 3.77424 5.81892 3.79325 6.24131L4.79224 6.19634ZM4.92374 5.34761C5.02331 5.07801 5.17497 4.83473 5.36776 4.63273L4.64434 3.94232C4.35566 4.2448 4.13175 4.60564 3.98567 5.00115L4.92374 5.34761ZM5.36776 4.63273C5.56048 4.4308 5.78995 4.27463 6.04077 4.17283L5.6647 3.24624C5.28036 3.40223 4.93308 3.63978 4.64434 3.94232L5.36776 4.63273ZM6.04077 4.17283C6.29151 4.07107 6.55892 4.0255 6.8262 4.03842L6.87446 3.03958C6.46125 3.01962 6.04911 3.09022 5.6647 3.24624L6.04077 4.17283ZM6.82582 4.0384L8.67854 4.12935L8.72757 3.13055L6.87485 3.0396L6.82582 4.0384ZM8.6786 4.12935C9.11522 4.15073 9.55037 4.07097 9.95271 3.89656L9.55497 2.97906C9.2923 3.09292 9.00989 3.14438 8.72751 3.13055L8.6786 4.12935ZM9.95271 3.89656C10.355 3.72218 10.7136 3.45793 11.0039 3.12425L10.2496 2.4678C10.0552 2.69114 9.81774 2.86515 9.55497 2.97906L9.95271 3.89656ZM11.004 3.12421L12.2522 1.6895L11.4977 1.03314L10.2495 2.46784L11.004 3.12421ZM9.65199 13.7173L12.0994 16.2792L12.8225 15.5885L10.3751 13.0265L9.65199 13.7173ZM12.8225 16.2792L17.7174 11.1553L16.9943 10.4645L12.0994 15.5885L12.8225 16.2792Z" fill="#2ACC7E"/>
</svg>
