<svg width="26" height="27" viewBox="0 0 26 27" fill="none" xmlns="http://www.w3.org/2000/svg">
<path d="M10.9721 1.36131C11.2015 1.09753 11.481 0.886807 11.7926 0.742615C12.1043 0.598422 12.4413 0.523941 12.782 0.523941C13.1228 0.523941 13.4597 0.598422 13.7714 0.742615C14.0831 0.886807 14.3625 1.09753 14.5919 1.36131L15.8401 2.79601C16.0825 3.07452 16.3805 3.29365 16.713 3.43779C17.0455 3.58193 17.4043 3.64754 17.7638 3.62993L19.6153 3.54027C19.9555 3.52348 20.2954 3.58123 20.6131 3.7098C20.9307 3.83838 21.2193 4.03495 21.4603 4.28695C21.7012 4.53894 21.8893 4.84081 22.0124 5.17325C22.1355 5.50568 22.191 5.86136 22.1753 6.21753L22.0884 8.15694C22.0716 8.53326 22.1343 8.90884 22.272 9.2569C22.4097 9.60497 22.619 9.91696 22.8851 10.1707L24.2557 11.4773C24.5076 11.7174 24.709 12.0099 24.8467 12.3362C24.9844 12.6624 25.0556 13.0152 25.0556 13.3718C25.0556 13.7285 24.9844 14.0813 24.8467 14.4075C24.709 14.7338 24.5076 15.0263 24.2557 15.2664L22.8851 16.573C22.619 16.8267 22.4097 17.1387 22.272 17.4868C22.1343 17.8349 22.0716 18.2104 22.0884 18.5867L22.1741 20.5249C22.1901 20.881 22.135 21.2368 22.0121 21.5693C21.8893 21.9019 21.7015 22.2039 21.4608 22.4562C21.2201 22.7084 20.9317 22.9053 20.6141 23.0342C20.2965 23.1631 19.9568 23.2211 19.6165 23.2047L17.7638 23.1138C17.4043 23.0961 17.0455 23.1618 16.713 23.3059C16.3805 23.45 16.0825 23.6692 15.8401 23.9477L14.5919 25.3824C14.3625 25.6462 14.0831 25.8569 13.7714 26.0011C13.4597 26.1453 13.1228 26.2197 12.782 26.2197C12.4413 26.2197 12.1043 26.1453 11.7926 26.0011C11.481 25.8569 11.2015 25.6462 10.9721 25.3824L9.72392 23.9477C9.48157 23.6692 9.18352 23.45 8.85101 23.3059C8.5185 23.1618 8.15972 23.0961 7.80022 23.1138L5.94873 23.2034C5.60849 23.2202 5.26866 23.1625 4.95097 23.0339C4.63328 22.9053 4.34472 22.7087 4.10376 22.4567C3.8628 22.2047 3.67473 21.9029 3.5516 21.5704C3.42847 21.238 3.37299 20.8823 3.38869 20.5262L3.47558 18.5867C3.49239 18.2104 3.42972 17.8349 3.29202 17.4868C3.15432 17.1387 2.94499 16.8267 2.67893 16.573L1.30836 15.2664C1.05638 15.0263 0.855069 14.7338 0.717321 14.4075C0.579574 14.0813 0.508423 13.7285 0.508423 13.3718C0.508423 13.0152 0.579574 12.6624 0.717321 12.3362C0.855069 12.0099 1.05638 11.7174 1.30836 11.4773L2.67893 10.1707C2.94499 9.91696 3.15432 9.60497 3.29202 9.2569C3.42972 8.90884 3.49239 8.53326 3.47558 8.15694L3.38991 6.21881C3.37388 5.86266 3.42905 5.50692 3.55187 5.17437C3.6747 4.84181 3.86249 4.53975 4.10322 4.28751C4.34395 4.03527 4.63233 3.83841 4.9499 3.70952C5.26748 3.58063 5.60725 3.52254 5.9475 3.53898L7.80022 3.62993C8.15972 3.64754 8.5185 3.58193 8.85101 3.43779C9.18352 3.29365 9.48157 3.07452 9.72392 2.79601L10.9721 1.36131Z" fill="white"/>
<path d="M14.3554 11.4504C13.9961 11.0743 13.3636 10.813 12.782 10.7965L14.3554 11.4504ZM11.2086 15.0188C11.5464 15.491 12.1752 15.76 12.782 15.7825L11.2086 15.0188ZM12.782 10.7965C12.0897 10.7768 11.4709 11.1045 11.4709 11.9994C11.4709 13.6464 14.3554 12.8229 14.3554 14.4698C14.3554 15.4092 13.5876 15.8127 12.782 15.7825" fill="white"/>
<path d="M12.782 18.8618C15.6786 18.8618 18.0266 16.4039 18.0266 13.3718C18.0266 10.3397 15.6786 7.8819 12.782 7.8819C9.88545 7.8819 7.53747 10.3397 7.53747 13.3718C7.53747 16.4039 9.88545 18.8618 12.782 18.8618Z" fill="white"/>
<path d="M10.9721 1.36131L11.255 1.60744L11.2551 1.60738L10.9721 1.36131ZM12.782 0.523941V0.898941V0.523941ZM14.5919 1.36131L14.3089 1.60738L14.309 1.60744L14.5919 1.36131ZM15.8401 2.79601L15.5572 3.04215L15.5572 3.04218L15.8401 2.79601ZM17.7638 3.62993L17.7457 3.25537L17.7455 3.25538L17.7638 3.62993ZM19.6153 3.54027L19.6334 3.91483L19.6338 3.91481L19.6153 3.54027ZM22.1753 6.21753L22.55 6.23431L22.55 6.23405L22.1753 6.21753ZM22.0884 8.15694L21.7138 8.14016L21.7138 8.1402L22.0884 8.15694ZM22.8851 10.1707L22.6263 10.4421L22.6263 10.4421L22.8851 10.1707ZM24.2557 11.4773L23.9969 11.7487L23.997 11.7487L24.2557 11.4773ZM24.2557 15.2664L23.997 14.9949L23.9969 14.995L24.2557 15.2664ZM22.8851 16.573L22.6263 16.3016L22.6263 16.3016L22.8851 16.573ZM22.0884 18.5867L22.4631 18.5702L22.4631 18.57L22.0884 18.5867ZM22.1741 20.5249L21.7995 20.5414L21.7995 20.5417L22.1741 20.5249ZM19.6165 23.2047L19.5981 23.5793L19.5984 23.5793L19.6165 23.2047ZM17.7638 23.1138L17.7822 22.7392L17.7821 22.7392L17.7638 23.1138ZM15.8401 23.9477L15.5572 23.7015L15.5572 23.7015L15.8401 23.9477ZM14.5919 25.3824L14.309 25.1362L14.3089 25.1363L14.5919 25.3824ZM10.9721 25.3824L11.2551 25.1363L11.255 25.1362L10.9721 25.3824ZM9.72392 23.9477L10.0068 23.7015L10.0068 23.7015L9.72392 23.9477ZM7.80022 23.1138L7.81836 23.4883L7.81856 23.4883L7.80022 23.1138ZM5.94873 23.2034L5.93058 22.8289L5.93025 22.8289L5.94873 23.2034ZM3.38869 20.5262L3.01407 20.5094L3.01405 20.5096L3.38869 20.5262ZM3.47558 18.5867L3.8502 18.6035L3.8502 18.6035L3.47558 18.5867ZM2.67893 16.573L2.93771 16.3016L2.93769 16.3016L2.67893 16.573ZM1.30836 15.2664L1.56711 14.995L1.56705 14.9949L1.30836 15.2664ZM0.508423 13.3718H0.883423H0.508423ZM1.30836 11.4773L1.56705 11.7487L1.56711 11.7487L1.30836 11.4773ZM2.67893 10.1707L2.93769 10.4421L2.93771 10.4421L2.67893 10.1707ZM3.47558 8.15694L3.10094 8.1735L3.10095 8.17369L3.47558 8.15694ZM3.38991 6.21881L3.76455 6.20225L3.76453 6.20195L3.38991 6.21881ZM5.9475 3.53898L5.96589 3.16444L5.9656 3.16442L5.9475 3.53898ZM7.80022 3.62993L7.78184 4.00448L7.78188 4.00449L7.80022 3.62993ZM9.72392 2.79601L10.0068 3.04218L10.0068 3.04215L9.72392 2.79601ZM14.0842 11.7094C14.2273 11.8592 14.4647 11.8646 14.6144 11.7215C14.7642 11.5785 14.7696 11.3411 14.6265 11.1913L14.0842 11.7094ZM12.782 10.7965L12.7713 11.1714L12.7714 11.1714L12.782 10.7965ZM11.5136 14.8007C11.3931 14.6322 11.1589 14.5933 10.9905 14.7138C10.822 14.8343 10.7832 15.0686 10.9037 15.237L11.5136 14.8007ZM12.782 15.7825L12.7961 15.4078L12.7959 15.4077L12.782 15.7825ZM11.2551 1.60738C11.4504 1.38279 11.6873 1.20452 11.9501 1.08295L11.6352 0.402275C11.2746 0.569091 10.9526 0.812275 10.6891 1.11523L11.2551 1.60738ZM11.9501 1.08295C12.2128 0.961411 12.4961 0.898941 12.782 0.898941V0.148941C12.3865 0.148941 11.9958 0.235433 11.6352 0.402275L11.9501 1.08295ZM12.782 0.898941C13.0679 0.898941 13.3512 0.961411 13.6139 1.08295L13.9289 0.402275C13.5683 0.235433 13.1776 0.148941 12.782 0.148941V0.898941ZM13.6139 1.08295C13.8767 1.20452 14.1136 1.3828 14.3089 1.60738L14.8749 1.11523C14.6114 0.812275 14.2894 0.569091 13.9289 0.402275L13.6139 1.08295ZM14.309 1.60744L15.5572 3.04215L16.123 2.54987L14.8748 1.11517L14.309 1.60744ZM15.5572 3.04218C15.8356 3.36207 16.179 3.61504 16.5639 3.78185L16.8622 3.09373C16.582 2.97226 16.3293 2.78697 16.123 2.54984L15.5572 3.04218ZM16.5639 3.78185C16.9487 3.9487 17.3648 4.02492 17.7821 4.00449L17.7455 3.25538C17.4438 3.27016 17.1423 3.21516 16.8622 3.09373L16.5639 3.78185ZM17.7819 4.0045L19.6334 3.91483L19.5972 3.1657L17.7457 3.25537L17.7819 4.0045ZM19.6338 3.91481C19.9193 3.90073 20.2048 3.94914 20.4724 4.05741L20.7537 3.36219C20.3859 3.21332 19.9918 3.14624 19.5968 3.16572L19.6338 3.91481ZM20.4724 4.05741C20.74 4.16571 20.9843 4.33181 21.1892 4.54611L21.7313 4.02778C21.4543 3.73809 21.1215 3.51104 20.7537 3.36219L20.4724 4.05741ZM21.1892 4.54611C21.3942 4.76046 21.5551 5.01826 21.6608 5.3035L22.3641 5.043C22.2235 4.66336 22.0083 4.31742 21.7313 4.02778L21.1892 4.54611ZM21.6608 5.3035C21.7664 5.58876 21.8142 5.89452 21.8007 6.20101L22.55 6.23405C22.5679 5.82821 22.5047 5.42261 22.3641 5.043L21.6608 5.3035ZM21.8007 6.20075L21.7138 8.14016L22.4631 8.17373L22.55 6.23431L21.8007 6.20075ZM21.7138 8.1402C21.6947 8.56899 21.766 8.99731 21.9233 9.39485L22.6207 9.11895C22.5026 8.82037 22.4486 8.49754 22.4631 8.17369L21.7138 8.1402ZM21.9233 9.39485C22.0806 9.79243 22.3202 10.1502 22.6263 10.4421L23.1439 9.89926C22.9178 9.68372 22.7388 9.4175 22.6207 9.11895L21.9233 9.39485ZM22.6263 10.4421L23.9969 11.7487L24.5144 11.2058L23.1438 9.89923L22.6263 10.4421ZM23.997 11.7487C24.2111 11.9527 24.3831 12.2023 24.5012 12.482L25.1922 12.1903C25.0348 11.8175 24.8042 11.482 24.5144 11.2058L23.997 11.7487ZM24.5012 12.482C24.6193 12.7618 24.6806 13.0649 24.6806 13.3718H25.4306C25.4306 12.9654 25.3496 12.563 25.1922 12.1903L24.5012 12.482ZM24.6806 13.3718C24.6806 13.6788 24.6193 13.9819 24.5012 14.2617L25.1922 14.5534C25.3496 14.1807 25.4306 13.7783 25.4306 13.3718H24.6806ZM24.5012 14.2617C24.3831 14.5414 24.2111 14.7909 23.997 14.9949L24.5144 15.5379C24.8042 15.2617 25.0348 14.9262 25.1922 14.5534L24.5012 14.2617ZM23.9969 14.995L22.6263 16.3016L23.1438 16.8445L24.5144 15.5378L23.9969 14.995ZM22.6263 16.3016C22.3202 16.5935 22.0806 16.9513 21.9233 17.3488L22.6207 17.6247C22.7388 17.3262 22.9178 17.06 23.1439 16.8444L22.6263 16.3016ZM21.9233 17.3488C21.766 17.7464 21.6947 18.1747 21.7138 18.6035L22.4631 18.57C22.4486 18.2462 22.5026 17.9233 22.6207 17.6247L21.9233 17.3488ZM21.7138 18.6033L21.7995 20.5414L22.5487 20.5083L22.4631 18.5702L21.7138 18.6033ZM21.7995 20.5417C21.8133 20.8482 21.7658 21.154 21.6604 21.4394L22.3639 21.6992C22.5042 21.3195 22.567 20.9138 22.5487 20.508L21.7995 20.5417ZM21.6604 21.4394C21.555 21.7247 21.3943 21.9827 21.1895 22.1973L21.7321 22.7151C22.0088 22.4252 22.2237 22.079 22.3639 21.6992L21.6604 21.4394ZM21.1895 22.1973C20.9848 22.4118 20.7406 22.5781 20.4731 22.6867L20.7551 23.3816C21.1228 23.2324 21.4553 23.005 21.7321 22.7151L21.1895 22.1973ZM20.4731 22.6867C20.2056 22.7952 19.9201 22.8439 19.6346 22.8301L19.5984 23.5793C19.9934 23.5984 20.3874 23.5309 20.7551 23.3816L20.4731 22.6867ZM19.6349 22.8302L17.7822 22.7392L17.7454 23.4883L19.5981 23.5793L19.6349 22.8302ZM17.7821 22.7392C17.3648 22.7188 16.9487 22.795 16.5639 22.9618L16.8622 23.65C17.1423 23.5285 17.4438 23.4735 17.7455 23.4883L17.7821 22.7392ZM16.5639 22.9618C16.179 23.1287 15.8356 23.3816 15.5572 23.7015L16.123 24.1938C16.3293 23.9567 16.582 23.7714 16.8622 23.65L16.5639 22.9618ZM15.5572 23.7015L14.309 25.1362L14.8748 25.6285L16.123 24.1938L15.5572 23.7015ZM14.3089 25.1363C14.1136 25.3609 13.8767 25.5392 13.6139 25.6607L13.9289 26.3414C14.2894 26.1746 14.6114 25.9314 14.8749 25.6285L14.3089 25.1363ZM13.6139 25.6607C13.3512 25.7823 13.0679 25.8447 12.782 25.8447V26.5947C13.1776 26.5947 13.5682 26.5083 13.9289 26.3414L13.6139 25.6607ZM12.782 25.8447C12.4961 25.8447 12.2128 25.7823 11.9501 25.6607L11.6352 26.3414C11.9958 26.5083 12.3865 26.5947 12.782 26.5947V25.8447ZM11.9501 25.6607C11.6873 25.5392 11.4504 25.3609 11.2551 25.1363L10.6891 25.6285C10.9526 25.9314 11.2746 26.1746 11.6352 26.3414L11.9501 25.6607ZM11.255 25.1362L10.0068 23.7015L9.441 24.1938L10.6892 25.6285L11.255 25.1362ZM10.0068 23.7015C9.72845 23.3816 9.38497 23.1287 9.00016 22.9618L8.70186 23.65C8.98206 23.7714 9.23469 23.9567 9.44103 24.1938L10.0068 23.7015ZM9.00016 22.9618C8.61528 22.795 8.19922 22.7188 7.78188 22.7392L7.81856 23.4883C8.12022 23.4735 8.42173 23.5285 8.70186 23.65L9.00016 22.9618ZM7.78208 22.7392L5.93058 22.8289L5.96687 23.578L7.81836 23.4883L7.78208 22.7392ZM5.93025 22.8289C5.64474 22.843 5.35919 22.7946 5.09165 22.6863L4.81029 23.3815C5.17813 23.5304 5.57225 23.5974 5.9672 23.578L5.93025 22.8289ZM5.09165 22.6863C4.82405 22.578 4.57971 22.4119 4.37479 22.1976L3.83273 22.7159C4.10973 23.0056 4.4425 23.2327 4.81029 23.3815L5.09165 22.6863ZM4.37479 22.1976C4.16983 21.9832 4.00891 21.7254 3.90326 21.4402L3.19995 21.7007C3.34056 22.0803 3.55576 22.4263 3.83273 22.7159L4.37479 22.1976ZM3.90326 21.4402C3.7976 21.1549 3.74981 20.8492 3.76333 20.5427L3.01405 20.5096C2.99616 20.9155 3.05935 21.3211 3.19995 21.7007L3.90326 21.4402ZM3.76331 20.5429L3.8502 18.6035L3.10095 18.57L3.01407 20.5094L3.76331 20.5429ZM3.8502 18.6035C3.86936 18.1747 3.798 17.7464 3.64072 17.3488L2.94332 17.6247C3.06144 17.9233 3.11542 18.2461 3.10095 18.57L3.8502 18.6035ZM3.64072 17.3488C3.48344 16.9513 3.24378 16.5935 2.93771 16.3016L2.42015 16.8444C2.6462 17.06 2.82521 17.3262 2.94332 17.6247L3.64072 17.3488ZM2.93769 16.3016L1.56711 14.995L1.0496 15.5378L2.42017 16.8445L2.93769 16.3016ZM1.56705 14.9949C1.35296 14.7909 1.18089 14.5414 1.06279 14.2617L0.371853 14.5534C0.529246 14.9262 0.759789 15.2617 1.04966 15.5379L1.56705 14.9949ZM1.06279 14.2617C0.944677 13.9819 0.883423 13.6788 0.883423 13.3718H0.133423C0.133423 13.7783 0.214471 14.1807 0.371853 14.5534L1.06279 14.2617ZM0.883423 13.3718C0.883423 13.0649 0.944677 12.7618 1.06279 12.482L0.371853 12.1903C0.214471 12.563 0.133423 12.9654 0.133423 13.3718H0.883423ZM1.06279 12.482C1.18089 12.2023 1.35296 11.9527 1.56705 11.7487L1.04966 11.2058C0.759789 11.482 0.529247 11.8175 0.371853 12.1903L1.06279 12.482ZM1.56711 11.7487L2.93769 10.4421L2.42017 9.89923L1.0496 11.2058L1.56711 11.7487ZM2.93771 10.4421C3.24378 10.1502 3.48344 9.79244 3.64072 9.39485L2.94332 9.11895C2.82521 9.4175 2.6462 9.68372 2.42015 9.89926L2.93771 10.4421ZM3.64072 9.39485C3.798 8.9973 3.86936 8.56899 3.8502 8.1402L3.10095 8.17369C3.11542 8.49754 3.06144 8.82037 2.94332 9.11895L3.64072 9.39485ZM3.85021 8.14039L3.76455 6.20225L3.01528 6.23537L3.10094 8.1735L3.85021 8.14039ZM3.76453 6.20195C3.75074 5.89547 3.79825 5.58966 3.90365 5.30429L3.2001 5.04444C3.05985 5.42419 2.99703 5.82985 3.01529 6.23567L3.76453 6.20195ZM3.90365 5.30429C4.00904 5.01894 4.16973 4.76098 4.3745 4.54642L3.83194 4.02861C3.55524 4.31852 3.34036 4.66467 3.2001 5.04444L3.90365 5.30429ZM4.3745 4.54642C4.57923 4.3319 4.82342 4.16556 5.09093 4.05699L4.80888 3.36205C4.44123 3.51126 4.10867 3.73864 3.83194 4.02861L4.3745 4.54642ZM5.09093 4.05699C5.35838 3.94844 5.64388 3.89975 5.9294 3.91355L5.9656 3.16442C5.57063 3.14534 5.17658 3.21281 4.80888 3.36205L5.09093 4.05699ZM5.92911 3.91353L7.78184 4.00448L7.81861 3.25539L5.96589 3.16444L5.92911 3.91353ZM7.78188 4.00449C8.19922 4.02492 8.61528 3.9487 9.00016 3.78185L8.70186 3.09373C8.42173 3.21516 8.12022 3.27016 7.81856 3.25538L7.78188 4.00449ZM9.00016 3.78185C9.38498 3.61504 9.72845 3.36207 10.0068 3.04218L9.44103 2.54984C9.23469 2.78697 8.98206 2.97226 8.70186 3.09373L9.00016 3.78185ZM10.0068 3.04215L11.255 1.60744L10.6892 1.11517L9.441 2.54987L10.0068 3.04215ZM14.6265 11.1913C14.19 10.7344 13.459 10.4405 12.7926 10.4217L12.7714 11.1714C13.2682 11.1854 13.8022 11.4142 14.0842 11.7094L14.6265 11.1913ZM10.9037 15.237C11.3258 15.8271 12.0776 16.1316 12.7681 16.1572L12.7959 15.4077C12.2729 15.3883 11.767 15.1549 11.5136 14.8007L10.9037 15.237ZM12.7927 10.4217C12.3912 10.4102 11.9663 10.4975 11.6338 10.7611C11.2881 11.0353 11.0959 11.4577 11.0959 11.9994H11.8459C11.8459 11.6462 11.9631 11.4573 12.0999 11.3488C12.2499 11.2298 12.4805 11.1631 12.7713 11.1714L12.7927 10.4217ZM11.0959 11.9994C11.0959 12.2624 11.1542 12.4951 11.2691 12.6966C11.3831 12.8966 11.5416 13.0461 11.7137 13.1607C12.0425 13.3798 12.4656 13.4968 12.8102 13.5952C13.1867 13.7027 13.4848 13.7915 13.6968 13.9327C13.7951 13.9982 13.862 14.0675 13.9057 14.1441C13.9485 14.2193 13.9804 14.3211 13.9804 14.4698H14.7304C14.7304 14.2068 14.6721 13.9741 14.5572 13.7726C14.4431 13.5726 14.2846 13.4231 14.1126 13.3085C13.7837 13.0895 13.3607 12.9724 13.0161 12.874C12.6396 12.7665 12.3415 12.6777 12.1295 12.5365C12.0311 12.471 11.9643 12.4017 11.9206 12.3251C11.8777 12.2499 11.8459 12.1481 11.8459 11.9994H11.0959ZM13.9804 14.4698C13.9804 14.8235 13.8426 15.0455 13.6491 15.1873C13.4417 15.3393 13.1383 15.4206 12.7961 15.4078L12.768 16.1572C13.2313 16.1746 13.7145 16.0692 14.0925 15.7922C14.4843 15.505 14.7304 15.0555 14.7304 14.4698H13.9804ZM12.782 19.2368C15.9017 19.2368 18.4016 16.5947 18.4016 13.3718H17.6516C17.6516 16.2132 15.4555 18.4868 12.782 18.4868V19.2368ZM18.4016 13.3718C18.4016 10.149 15.9017 7.5069 12.782 7.5069V8.2569C15.4555 8.2569 17.6516 10.5305 17.6516 13.3718H18.4016ZM12.782 7.5069C9.66237 7.5069 7.16247 10.149 7.16247 13.3718H7.91247C7.91247 10.5305 10.1085 8.2569 12.782 8.2569V7.5069ZM7.16247 13.3718C7.16247 16.5947 9.66237 19.2368 12.782 19.2368V18.4868C10.1085 18.4868 7.91247 16.2132 7.91247 13.3718H7.16247Z" fill="#3497AC"/>
</svg>
