<svg width="27" height="27" viewBox="0 0 27 27" fill="none" xmlns="http://www.w3.org/2000/svg">
<path d="M11.4233 1.36132C11.6527 1.09755 11.9321 0.886823 12.2438 0.74263C12.5554 0.598437 12.8924 0.523956 13.2332 0.523956C13.5739 0.523956 13.9109 0.598437 14.2226 0.74263C14.5342 0.886823 14.8137 1.09755 15.0431 1.36132L16.2913 2.79603C16.5336 3.07453 16.8317 3.29366 17.1642 3.43781C17.4967 3.58195 17.8555 3.64755 18.215 3.62995L20.0665 3.54028C20.4067 3.5235 20.7465 3.58124 21.0642 3.70982C21.3819 3.83839 21.6705 4.03496 21.9114 4.28696C22.1524 4.53896 22.3405 4.84083 22.4636 5.17326C22.5867 5.5057 22.6422 5.86138 22.6265 6.21755L22.5396 8.15696C22.5228 8.53328 22.5855 8.90885 22.7232 9.25692C22.8609 9.60498 23.0702 9.91698 23.3363 10.1707L24.7068 11.4773C24.9588 11.7174 25.1601 12.0099 25.2979 12.3362C25.4356 12.6624 25.5068 13.0152 25.5068 13.3719C25.5068 13.7285 25.4356 14.0813 25.2979 14.4076C25.1601 14.7338 24.9588 15.0263 24.7068 15.2664L23.3363 16.573C23.0702 16.8267 22.8609 17.1387 22.7232 17.4868C22.5855 17.8349 22.5228 18.2104 22.5396 18.5868L22.6253 20.5249C22.6413 20.881 22.5861 21.2368 22.4633 21.5693C22.3405 21.9019 22.1527 22.204 21.912 22.4562C21.6712 22.7084 21.3829 22.9053 21.0653 23.0342C20.7477 23.1631 20.4079 23.2212 20.0677 23.2047L18.215 23.1138C17.8555 23.0962 17.4967 23.1618 17.1642 23.3059C16.8317 23.4501 16.5336 23.6692 16.2913 23.9477L15.0431 25.3824C14.8137 25.6462 14.5342 25.8569 14.2226 26.0011C13.9109 26.1453 13.5739 26.2198 13.2332 26.2198C12.8924 26.2198 12.5554 26.1453 12.2438 26.0011C11.9321 25.8569 11.6527 25.6462 11.4233 25.3824L10.1751 23.9477C9.93274 23.6692 9.63469 23.4501 9.30218 23.3059C8.96968 23.1618 8.61089 23.0962 8.25139 23.1138L6.3999 23.2034C6.05966 23.2202 5.71983 23.1625 5.40214 23.0339C5.08445 22.9053 4.79589 22.7088 4.55493 22.4568C4.31397 22.2048 4.12591 21.9029 4.00277 21.5705C3.87964 21.238 3.82416 20.8823 3.83986 20.5262L3.92675 18.5868C3.94356 18.2104 3.88089 17.8349 3.74319 17.4868C3.60549 17.1387 3.39616 16.8267 3.1301 16.573L1.75953 15.2664C1.50755 15.0263 1.30624 14.7338 1.16849 14.4076C1.03075 14.0813 0.959595 13.7285 0.959595 13.3719C0.959595 13.0152 1.03075 12.6624 1.16849 12.3362C1.30624 12.0099 1.50755 11.7174 1.75953 11.4773L3.1301 10.1707C3.39616 9.91698 3.60549 9.60498 3.74319 9.25692C3.88089 8.90885 3.94356 8.53328 3.92675 8.15696L3.84109 6.21883C3.82506 5.86267 3.88022 5.50694 4.00304 5.17438C4.12587 4.84182 4.31366 4.53976 4.55439 4.28753C4.79512 4.03529 5.0835 3.83843 5.40107 3.70954C5.71865 3.58064 6.05843 3.52256 6.39867 3.539L8.25139 3.62995C8.61089 3.64755 8.96968 3.58195 9.30218 3.43781C9.63469 3.29366 9.93274 3.07453 10.1751 2.79603L11.4233 1.36132Z" fill="white" stroke="#EC5F5F"/>
</svg>
